PathFileType	4	(X/Y/Z)	C:/Users/beibeiliu/ov580/test_trc/capture2\sequence.24_training_dense_left.trc
DataRate	CameraRate	NumFrames	NumMarkers	Units	OrigDataRate	OrigDataStartFrame	OrigNumFrames
120	120	9	19	mm	120	351	400
Frame#	Time	ThumbCMC			ThumbMCP			ThumbIP			ThumbTip			IndexMCP			IndexPIP			IndexTip			MiddleMCP			MiddlePIP			MiddleTip			RingMCP			RingPIP			RingTip			PinkyMCP			PinkyPIP			PinkyTip			BackHand1			BackHand2			BackHand3	
		X0	Y0	Z0	X1	Y1	Z1	X2	Y2	Z2	X3	Y3	Z3	X4	Y4	Z4	X5	Y5	Z5	X6	Y6	Z6	X7	Y7	Z7	X8	Y8	Z8	X9	Y9	Z9	X10	Y10	Z10	X11	Y11	Z11	X12	Y12	Z12	X13	Y13	Z13	X14	Y14	Z14	X15	Y15	Z15	X16	Y16	Z16	X17	Y17	Z17	X18	Y18	Z18	
350	2.91667	-152.957	79.9007	-12.6512	-131.56	70.911	-42.4778	-127.265	56.0635	-65.2413	-133.692	31.4073	-76.4228	-200.008	62.1407	-72.387	-204.37	55.4958	-92.2232	-215.075	49.032	-115.712	-206.303	40.6539	-71.732	-212.671	35.125	-96.225	-220.819	29.4237	-124.037	-186.45	23.8963	-67.2025	-159.117	21.3412	-87.434	-137.942	35.8548	-67.6524	-169.383	5.69332	-55.0815	-140.014	16.7688	-62.7157	-128.297	37.7661	-40.9245	-192.984	29.3482	-17.7043	-188.738	38.8557	11.8521	-191.481	61.9872	-4.12	
351	2.925	-157.924	77.8217	-15.527	-134.092	68.1739	-44.7341	-129.273	50.0353	-67.9575	-135.97	26.7249	-75.4731	-201.685	56.5826	-72.4578	-205.724	49.3652	-91.7576	-216.303	39.2473	-117.311	-206.718	31.4641	-68.9481	-214.394	29.9741	-93.5381	-219.811	16.037	-118.878	-186.464	11.2031	-69.6928	-159.205	12.3445	-85.6002	-138.311	25.6662	-66.7625	-169.105	2.80648	-53.7462	-143.366	10.866	-63.1688	-129.645	31.3172	-41.5475	-194.248	26.8839	-12.479	-188.32	30.7008	12.2336	-194.971	59.6884	-7.19319	
352	2.93333	-161.679	71.9979	-15.7398	-137.821	64.4058	-42.2627	-133.418	42.8351	-67.6469	-135.866	21.1364	-72.285	-203.828	48.1788	-71.2384	-209.726	40.9912	-97.2025	-215.795	25.6649	-114.311	-207.293	25.9065	-66.2832	-213.904	17.0257	-90.7024	-220.588	8.19927	-122.423	-185.493	3.33444	-68.3078	-162.29	6.69269	-84.645	-140.034	25.3582	-66.1579	-165.574	-6.43402	-54.7702	-141.441	7.04138	-60.3761	-129.424	29.1518	-42.0339	-197.391	17.1378	-13.9279	-188.612	25.7305	16.9092	-197.585	51.0672	-4.97037	
353	2.94167	-165.204	66.3979	-17.8799	-140.14	59.1593	-41.6777	-134.491	38.9811	-65.3893	-135.213	17.2674	-71.1066	-204.628	35.3097	-72.2706	-208.417	28.0398	-95.9462	-214.457	19.8883	-114.604	-209.269	18.2041	-70.5259	-212.731	9.21386	-95.2094	-217.253	-4.0139	-119.155	-185.157	-1.50942	-63.1549	-160.084	2.16976	-83.7827	-140.168	20.2102	-67.599	-164.581	-11.4731	-51.8302	-141.218	3.99559	-59.6435	-128.709	23.7703	-40.614	-195.833	14.0461	-13.6743	-191.072	25.9019	15.7548	-200.77	47.7173	-9.0205	
354	2.95	-165.726	67.4173	-17.3153	-140.082	56.2695	-44.568	-133.037	36.5336	-64.73	-135.02	10.0135	-69.264	-203.528	31.498	-71.7121	-205.571	20.9088	-94.9134	-210.32	11.9392	-112.856	-204.638	9.34025	-65.2328	-209.473	0.189446	-93.364	-211.558	-12.5332	-116.369	-183.305	-4.95801	-62.9951	-157.972	-2.26778	-81.4691	-138.044	16.2383	-62.2342	-165.764	-11.5337	-47.3358	-136.439	-1.03746	-56.1488	-129.046	23.0363	-41.7082	-197.179	10.9042	-10.321	-193.096	20.3	19.9347	-199.221	43.5872	-6.16228	
355	2.95833	-166.672	63.8395	-16.6424	-139.109	54.1298	-43.0666	-131.016	31.8611	-63.9519	-129.274	10.023	-69.3958	-199.543	23.3117	-72.0696	-201.449	11.6046	-95.4406	-205.453	4.13895	-111.955	-202.171	1.28059	-68.5747	-204.495	-6.03944	-91.838	-204.818	-20.9013	-114.467	-178.996	-11.3493	-59.7846	-152.296	-7.46886	-78.27	-135.718	12.7254	-62.1996	-159.046	-17.7426	-47.739	-135.721	-2.47228	-53.9771	-125.051	19.5944	-34.9522	-193.503	3.08588	-8.37982	-193.826	18.8679	16.1749	-201.821	39.8106	-11.4412	
356	2.96667	-167.661	61.592	-17.8374	-139.809	50.1696	-41.156	-128.793	32.6791	-57.4792	-124.888	5.03772	-68.6666	-196.079	18.6779	-73.4364	-196.348	8.9809	-91.9277	-198.75	-8.43264	-112.174	-197.136	-1.6742	-66.2611	-196.911	-14.2313	-91.2091	-197.424	-29.0146	-116.725	-174.361	-12.2547	-61.2174	-146.213	-9.52229	-75.8434	-129.735	10.7034	-55.0282	-156.3	-17.205	-46.3397	-131.192	-3.51983	-51.8714	-124.886	20.9525	-33.9788	-189.987	0.683288	-9.38669	-191.507	18.2139	18.0796	-201.842	37.0384	-11.3897	
357	2.975	-166.283	60.414	-15.8362	-137.106	52.8696	-38.6219	-124.743	30.6903	-59.5592	-121.639	7.48178	-63.1838	-191.171	14.3557	-70.2506	-190.534	4.39702	-91.8194	-190.594	-11.6414	-107.977	-190.943	-1.90925	-66.1566	-189.882	-16.5433	-88.9146	-188.702	-31.7722	-117.569	-167.991	-15.6047	-59.2029	-139.506	-13.5304	-72.2866	-126.679	13.3	-55.1111	-150.222	-17.9961	-43.1114	-126.575	-6.98124	-48.4346	-123.474	20.9595	-27.4652	-187.694	-0.451863	-6.45244	-189.17	12.6845	19.0068	-198.25	32.0382	-8.12589	
358	2.98333	-165.818	61.3933	-15.6564	-133.978	52.7647	-36.4206	-121.041	33.3917	-54.3197	-115.989	7.62295	-60.5426	-187.554	15.2029	-69.9495	-183.703	0.619053	-89.2524	-182.136	-14.2853	-111.217	-185.671	-8.37759	-68.2792	-182.619	-20.024	-91.2904	-177.447	-34.4065	-114.039	-158.654	-20.8901	-59.0235	-132.469	-15.4684	-68.5438	-120.228	11.6983	-48.501	-142.043	-21.7561	-40.169	-117.358	-4.424	-42.056	-119.858	21.6048	-28.3687	-184.491	-2.55906	-11.0049	-187.616	8.75733	18.3752	-195.902	33.0535	-10.2814	
